ffmpeg version 2024-07-22-git-172da370e7-full_build-www.gyan.dev Copyright (c) 2000-2024 the FFmpeg developers
  built with gcc 13.2.0 (Rev5, Built by MSYS2 project)
  configuration: --enable-gpl --enable-version3 --enable-static --disable-w32threads --disable-autodetect --enable-fontconfig --enable-iconv --enable-gnutls --enable-libxml2 --enable-gmp --enable-bzlib --enable-lzma --enable-libsnappy --enable-zlib --enable-librist --enable-libsrt --enable-libssh --enable-libzmq --enable-avisynth --enable-libbluray --enable-libcaca --enable-sdl2 --enable-libaribb24 --enable-libaribcaption --enable-libdav1d --enable-libdavs2 --enable-libopenjpeg --enable-libquirc --enable-libuavs3d --enable-libxevd --enable-libzvbi --enable-libqrencode --enable-librav1e --enable-libsvtav1 --enable-libvvenc --enable-libwebp --enable-libx264 --enable-libx265 --enable-libxavs2 --enable-libxeve --enable-libxvid --enable-libaom --enable-libjxl --enable-libvpx --enable-mediafoundation --enable-libass --enable-frei0r --enable-libfreetype --enable-libfribidi --enable-libharfbuzz --enable-liblensfun --enable-libvidstab --enable-libvmaf --enable-libzimg --enable-amf --enable-cuda-llvm --enable-cuvid --enable-dxva2 --enable-d3d11va --enable-d3d12va --enable-ffnvcodec --enable-libvpl --enable-nvdec --enable-nvenc --enable-vaapi --enable-libshaderc --enable-vulkan --enable-libplacebo --enable-opencl --enable-libcdio --enable-libgme --enable-libmodplug --enable-libopenmpt --enable-libopencore-amrwb --enable-libmp3lame --enable-libshine --enable-libtheora --enable-libtwolame --enable-libvo-amrwbenc --enable-libcodec2 --enable-libilbc --enable-libgsm --enable-libopencore-amrnb --enable-libopus --enable-libspeex --enable-libvorbis --enable-ladspa --enable-libbs2b --enable-libflite --enable-libmysofa --enable-librubberband --enable-libsoxr --enable-chromaprint
  libavutil      59. 28.100 / 59. 28.100
  libavcodec     61. 10.100 / 61. 10.100
  libavformat    61.  5.101 / 61.  5.101
  libavdevice    61.  2.100 / 61.  2.100
  libavfilter    10.  2.102 / 10.  2.102
  libswscale      8.  2.100 /  8.  2.100
  libswresample   5.  2.100 /  5.  2.100
  libpostproc    58.  2.100 / 58.  2.100
Input #0, matroska,webm, from 'physics\2226059347_149_Electrostatics_05__EF_Due_To_Charged_Wire__Electric_Field_Li.mkv':
  Metadata:
    ENCODER         : Lavf60.22.101
  Duration: 02:08:24.03, start: 0.000000, bitrate: 372 kb/s
  Stream #0:0: Video: h264 (High), yuv420p(tv, bt709, progressive), 640x360 [SAR 1:1 DAR 16:9], 30 fps, 30 tbr, 1k tbn
      Metadata:
        DURATION        : 02:08:24.033000000
  Stream #0:1: Audio: aac (LC), 48000 Hz, stereo, fltp
      Metadata:
        DURATION        : 02:08:24.000000000
Stream mapping:
  Stream #0:0 -> #0:0 (copy)
  Stream #0:1 -> #0:1 (copy)
[segment @ 00000213c32e6680] Opening 'Electrostatics\05\\output000.mkv' for writing
Output #0, segment, to 'Electrostatics\05\\output%03d.mkv':
  Metadata:
    encoder         : Lavf61.5.101
  Stream #0:0: Video: h264 (High), yuv420p(tv, bt709, progressive), 640x360 [SAR 1:1 DAR 16:9], q=2-31, 30 fps, 30 tbr, 1k tbn
      Metadata:
        DURATION        : 02:08:24.033000000
  Stream #0:1: Audio: aac (LC), 48000 Hz, stereo, fltp
      Metadata:
        DURATION        : 02:08:24.000000000
Press [q] to stop, [?] for help
[segment @ 00000213c32e6680] Opening 'Electrostatics\05\\output001.mkv' for writing
[segment @ 00000213c32e6680] Opening 'Electrostatics\05\\output002.mkv' for writing
[segment @ 00000213c32e6680] Opening 'Electrostatics\05\\output003.mkv' for writing
size=N/A time=00:17:16.94 bitrate=N/A speed=2.06e+03x    [segment @ 00000213c32e6680] Opening 'Electrostatics\05\\output004.mkv' for writing
[segment @ 00000213c32e6680] Opening 'Electrostatics\05\\output005.mkv' for writing
[segment @ 00000213c32e6680] Opening 'Electrostatics\05\\output006.mkv' for writing
size=N/A time=00:33:31.80 bitrate=N/A speed=1.97e+03x    [segment @ 00000213c32e6680] Opening 'Electrostatics\05\\output007.mkv' for writing
[segment @ 00000213c32e6680] Opening 'Electrostatics\05\\output008.mkv' for writing
[segment @ 00000213c32e6680] Opening 'Electrostatics\05\\output009.mkv' for writing
[segment @ 00000213c32e6680] Opening 'Electrostatics\05\\output010.mkv' for writing
size=N/A time=00:50:58.30 bitrate=N/A speed=1.99e+03x    [segment @ 00000213c32e6680] Opening 'Electrostatics\05\\output011.mkv' for writing
size=N/A time=00:56:54.76 bitrate=N/A speed=1.66e+03x    size=N/A time=00:57:40.13 bitrate=N/A speed=1.35e+03x    size=N/A time=00:58:19.58 bitrate=N/A speed=1.13e+03x    size=N/A time=00:58:55.56 bitrate=N/A speed= 982x    [segment @ 00000213c32e6680] Opening 'Electrostatics\05\\output012.mkv' for writing
size=N/A time=01:02:49.40 bitrate=N/A speed= 919x    [segment @ 00000213c32e6680] Opening 'Electrostatics\05\\output013.mkv' for writing
size=N/A time=01:07:40.33 bitrate=N/A speed= 879x    [segment @ 00000213c32e6680] Opening 'Electrostatics\05\\output014.mkv' for writing
[segment @ 00000213c32e6680] Opening 'Electrostatics\05\\output015.mkv' for writing
size=N/A time=01:16:40.93 bitrate=N/A speed= 896x    size=N/A time=01:19:33.26 bitrate=N/A speed= 845x    size=N/A time=01:19:55.50 bitrate=N/A speed= 778x    [segment @ 00000213c32e6680] Opening 'Electrostatics\05\\output016.mkv' for writing
size=N/A time=01:22:59.81 bitrate=N/A speed= 745x    [segment @ 00000213c32e6680] Opening 'Electrostatics\05\\output017.mkv' for writing
[segment @ 00000213c32e6680] Opening 'Electrostatics\05\\output018.mkv' for writing
size=N/A time=01:33:00.16 bitrate=N/A speed= 776x    [segment @ 00000213c32e6680] Opening 'Electrostatics\05\\output019.mkv' for writing
size=N/A time=01:39:26.72 bitrate=N/A speed= 772x    [segment @ 00000213c32e6680] Opening 'Electrostatics\05\\output020.mkv' for writing
[segment @ 00000213c32e6680] Opening 'Electrostatics\05\\output021.mkv' for writing
[segment @ 00000213c32e6680] Opening 'Electrostatics\05\\output022.mkv' for writing
[segment @ 00000213c32e6680] Opening 'Electrostatics\05\\output023.mkv' for writing
size=N/A time=01:58:24.87 bitrate=N/A speed= 862x    [segment @ 00000213c32e6680] Opening 'Electrostatics\05\\output024.mkv' for writing
[segment @ 00000213c32e6680] Opening 'Electrostatics\05\\output025.mkv' for writing
[out#0/segment @ 00000213c32ee880] video:256073KiB audio:90281KiB subtitle:0KiB other streams:0KiB global headers:0KiB muxing overhead: unknown
size=N/A time=02:08:23.96 bitrate=N/A speed= 901x    
